<svg height="141.666667" viewBox="0 0 400 141.66666667" width="400" xmlns="http://www.w3.org/2000/svg"><g fill-rule="evenodd"><path d="m0 70.833v70.834h200 200v-70.834-70.833h-200-200zm46.979-60.375c.607.435 1.516 1.04 2.018 1.345.503.304.953.604 1 .666.048.063.437.396.865.739 4.84 3.889 5.259 7.313 1.56 12.771-1.79 2.64-1.823 2.683-2.07 2.685-.733.007-4.694-3.331-5.417-4.565-.971-1.656-1.215-4.571-.617-7.349.099-.458.246-1.133.328-1.5.406-1.837.674-3.255.771-4.083.208-1.777.124-1.739 1.562-.709m31.169 8.128c.179.549.564 1.635.856 2.414.911 2.435 1.852 5.062 2.001 5.583.704 2.465.79 2.862 1.1 5.084.283 2.024.169 3.926-.355 5.916-1.031 3.918-3.496 6.432-8.333 8.499-1.167.499-1.32.558-2 .775-.367.117-.742.258-.834.314-.091.056-.504.202-.916.323-.413.122-1.624.511-2.692.864-1.067.353-2.016.642-2.107.642-.169 0-.543-.832-.975-2.167-.134-.412-.307-.9-.385-1.083-.191-.452-.428-1.182-.675-2.083-.113-.413-.264-.938-.336-1.167-.485-1.536-.578-2.275-.579-4.583-.001-2.344.079-2.932.571-4.167 1.195-3 3.54-5.712 9.011-10.42 2.599-2.238 4.363-3.94 5.401-5.213.744-.912.803-.89 1.247.469m29.925 5.581c-.21 3.259-.302 4.026-.675 5.583-.48 2.007-2.242 4.262-3.949 5.054-2.024.94-3.024 1.006-8.366.558l-1.333-.112-.057-1c-.272-4.757 1.436-8.43 4.662-10.025 1.669-.824 2.053-.975 5.047-1.973 1.55-.517 3.238-1.154 3.75-1.415 1.226-.625 1.185-.775.921 3.33m-80.49-.652c7.68.809 9.771 3.82 8.788 12.652l-.121 1.083-.75.059c-1.052.084-3.714-.273-4.991-.669-2.909-.9-4.267-2.654-5.851-7.557-.83-2.565-1.251-3.747-1.677-4.706-.529-1.189-.524-1.193 1.311-1.111.893.04 2.375.152 3.291.249m27.436 9.366c-.136.136-.186.118-.186-.07 0-.331.224-.555.307-.307.035.106-.019.275-.121.377m-.284 1.161c-.056.389-.245 1.204-.419 1.809-.174.606-.316 1.281-.316 1.5 0 .22-.126.962-.28 1.649-.418 1.869-.413 7.911.009 10.5 1.413 8.671 7.203 17.907 14.104 22.498 6.442 4.284 11.359 11.444 13.794 20.085 1.698 6.024 2.374 11.321 2.371 18.584-.001 5.221-.123 6.967-.852 12.174-.223 1.59-.185 1.643 1.414 1.982.982.209 4.465 1.277 5.857 1.796.366.137 1.362.464 2.212.727 4.547 1.405 10.704 4.563 10.704 5.491 0 .475-1.131.494-29.098.495-29.042.001-30.902-.03-30.902-.528 0-.187.184-.382.456-.486.251-.095.682-.272.958-.393.277-.121.953-.391 1.503-.6s1.626-.667 2.392-1.019c.765-.352 1.477-.639 1.583-.639.105.001.942-.287 1.858-.639.917-.352 2.192-.806 2.834-1.009.641-.202 1.541-.505 2-.671.817-.297 1.927-.627 4.416-1.313 1.696-.467 5.029-1.172 6.852-1.45.625-.095.949-.373 1.264-1.085.101-.229.342-.772.534-1.207.193-.434.35-.888.35-1.008s.062-.29.138-.377.239-.496.363-.908c.124-.413.274-.825.333-.917.058-.091.206-.504.327-.916.121-.413.333-1.088.47-1.5.136-.413.306-1.05.376-1.417s.25-1.154.4-1.75c.149-.596.337-1.346.416-1.667.079-.32.231-1.221.338-2 .106-.779.282-1.829.391-2.333.126-.586.197-2.66.198-5.75 0-4.803-.086-5.891-.698-8.833-.133-.642-.281-1.354-.329-1.584-.158-.767-.752-2.741-1.072-3.564-.175-.447-.317-.917-.317-1.043 0-.127-.069-.361-.153-.52s-.571-1.152-1.081-2.206c-.987-2.038-1.209-2.437-2.652-4.767-.982-1.586-3.26-4.355-6.005-7.299-1.918-2.057-5.776-7.088-5.776-7.532 0-.048-.286-.514-.636-1.036-1.141-1.703-2.433-4.592-3.554-7.949-1.027-3.078-1.424-8.069-.901-11.334.309-1.927.746-3.916.939-4.278.084-.156.152-.428.152-.605 0-.408.613-1.986 1.912-4.923.519-1.174.977-1.305.823-.235m142.932 31.666c0 34.909-.062 33.003 1.134 34.832.764 1.167 2.052 1.795 4.741 2.307 1.4.267 1.379.105.551 4.236l-.2 1-1.322-.054c-.726-.03-1.584-.12-1.904-.199-.321-.079-.959-.234-1.417-.344-3.796-.911-6.265-3.466-7.284-7.539l-.383-1.53v-31.495-31.494l.75-.195c.413-.108 1.313-.284 2-.393.688-.108 1.475-.259 1.75-.335s.744-.145 1.042-.155l.542-.017zm-42.75-23.876c.641.083 1.841.234 2.666.336 2.535.312 5.756 1.106 6.79 1.673.159.088.37.159.469.159.842 0 4.422 2.26 6.052 3.821 6.058 5.801 5.625 16.763-.875 22.146-1.091.903-3.669 2.366-4.169 2.366-.703 0-.045.386 1.4.821.717.216.91.292 2.123.829.435.193.821.35.858.35.252 0 2.494 1.521 3.17 2.151 2.02 1.88 2.712 2.89 3.892 5.683 1.594 3.771 1.271 11.229-.632 14.589-.18.317-.487.859-.681 1.202-1.258 2.225-3.97 4.632-6.867 6.095-3.507 1.771-6.484 2.569-12.926 3.467-1.981.276-12.509.287-14.437.015-.825-.116-2.1-.287-2.833-.38-2.058-.259-5.675-.922-5.944-1.089-.077-.047-.14-14.183-.14-31.413v-31.327l.375-.147c.974-.382 5.4-1.065 8.709-1.344 3.95-.333 10.445-.335 13-.003m-10.931 5.235c-.038.037-1.043.154-2.232.261-1.19.107-2.259.273-2.375.37-.344.285-.308 22.516.037 22.801.3.249 14.627.128 16.859-.142 1.91-.231 4.695-.957 5.887-1.535.556-.269 1.052-.489 1.102-.489.629 0 3.186-2.512 3.872-3.804 1.355-2.552 1.754-6.68.894-9.261-1.394-4.183-5.61-6.959-11.78-7.759-.825-.107-1.906-.265-2.403-.352-.858-.149-9.715-.231-9.861-.09m-113.286 1.167c1.794.475 2.583.829 3.986 1.789 1.522 1.041 4.12 3.536 4.607 4.423.252.459 3.236 4.212 4.077 5.127.44.479.382.586-.899 1.677-.647.55-1.261 1.077-1.365 1.17-5.929 5.338-10.703 6.5-16.606 4.042-.229-.095-.567-.232-.75-.305-1.662-.655-3.177-1.386-6.083-2.937-3.437-1.833-5.086-2.609-6.834-3.216-.596-.207-1.145-.433-1.221-.503-.115-.106 1.026-1.146 5.013-4.572.206-.177.375-.412.375-.522 0-.203.552-.684 2.5-2.179 2.681-2.058 4.632-3.1 6.917-3.697.366-.096.929-.247 1.25-.335.906-.251 4.031-.227 5.033.038m66.799 5.141c-.005.151-.72 2.277-1.164 3.458-.292.779-.591 1.605-.663 1.834-1.514 4.783-4.755 8.893-7.755 9.833-.367.115-.839.275-1.05.355-.498.189-3.509.188-4.134-.001-.266-.081-1.045-.315-1.733-.52-.687-.206-1.4-.432-1.583-.504-.184-.072-.784-.301-1.334-.509s-1.45-.58-2-.827-1.168-.501-1.375-.566c-.471-.147-.468-.256.04-1.657 2.107-5.807 3.788-7.881 7.635-9.418.256-.103.684-.186.95-.186.283 0 .55-.118.643-.284.219-.391 3.399-.685 7.857-.725 1.879-.017 3.642-.088 3.917-.158.477-.121 1.751-.213 1.749-.125m141.168 4.438c.32.081 1.033.239 1.583.351 7.422 1.522 13.928 8.486 15.884 17.003.851 3.707 1.141 8.593.695 11.718-.295 2.06-.526 3.332-.78 4.282-.134.504-.303 1.141-.374 1.416-2.979 11.49-15.636 18.426-27.175 14.892-7.531-2.306-13.248-8.761-14.961-16.892-3.61-17.137 4.873-31.767 19.128-32.985 1.157-.098 5.346.052 6 .215m54.666 0c.321.081 1.034.239 1.584.351 3.823.783 8.276 3.536 10.922 6.753 2.623 3.189 4.268 6.739 5.249 11.333.785 3.675.785 9.825 0 13.5-2.468 11.555-10.597 18.577-21.505 18.577-6.954 0-12.152-2.466-16.815-7.974-.877-1.037-2.644-4.158-3.288-5.811-.081-.207-.216-.544-.301-.75-.263-.639-.787-2.493-1.002-3.542-.112-.55-.269-1.3-.349-1.667-.559-2.57-.548-8.312.021-11.25.383-1.972.9-3.97 1.315-5.083 2.194-5.873 5.689-9.947 10.753-12.534 2.157-1.102 4.095-1.664 7.083-2.052 1.26-.164 5.481-.064 6.333.149m53.153.024c4.562.711 7.116 1.86 9.376 4.22l.948.99.636-.488c5.752-4.407 15.719-6.138 22.721-3.946 4.697 1.471 8.043 5.266 9.304 10.554.172.72.272 1.316.717 4.25.143.948.222 6.034.271 17.628l.07 16.296-3.056-.046-3.056-.045-.096-16c-.063-10.504-.161-16.429-.284-17.25-1.181-7.876-4.209-10.666-11.576-10.667-4.815 0-8.271.959-11.916 3.308-1.539.991-1.481.797-.876 2.942 1.012 3.591 1.183 7.246 1.127 24.084l-.046 13.583h-3-3l-.108-15.833c-.062-9.118-.179-16.364-.277-17.084-.936-6.906-3.1-9.65-8.49-10.764-1.41-.291-8.369-.244-10.542.072-2.315.336-3.163.506-3.614.722l-.469.225-.083 21.331-.084 21.331-3.041.045-3.042.046v-23.491-23.491l.625-.186c1.024-.306 2.504-.681 3.875-.984.412-.091 1.106-.246 1.542-.344.435-.098 1.11-.249 1.5-.336 3.013-.672 11.36-1.074 13.944-.672m-113.736 5.42c-6.043.795-10.232 4.571-12.382 11.16-.311.951-.414 1.404-.892 3.916-.283 1.485-.278 7.895.008 9.417 1.891 10.081 6.947 14.99 15.433 14.981 6.262-.006 10.819-2.924 13.477-8.63 2.486-5.335 2.875-13.853.907-19.851-.615-1.872-1.201-3.101-2.188-4.583-2.177-3.271-4.767-5.194-8.196-6.084-.724-.188-4.051-.616-4.382-.564-.065.01-.868.117-1.785.238m54.75-.002c-8.648 1.156-13.519 8.27-13.519 19.745 0 12.482 5.731 19.729 15.602 19.729 5.294 0 8.875-1.772 11.911-5.896 5.256-7.136 5.01-21.449-.486-28.333-1.476-1.849-4.387-4.167-5.234-4.167-.114 0-.279-.059-.366-.132-.158-.133-.731-.326-1.991-.672-.649-.179-3.668-.551-4.112-.507-.122.012-.934.117-1.805.233m-183.005 7.363c1.485.495 2.41.914 3.755 1.703 2.39 1.401 5.542 3.012 5.894 3.012.494 0 .089.447-1.811 1.998-.504.411-.954.786-1 .833-3.662 3.764-8.79 4.971-12 2.825-1.414-.946-5.5-5.611-5.5-6.281 0-.434 3.1-2.879 4.622-3.646 2.235-1.125 3.676-1.231 6.04-.444m-51.391 3.562c.261 1.009.729 3.325 1.067 5.285.269 1.554.232 5.434-.062 6.535-1.218 4.562-3.218 6.624-12.109 12.488-1.513.997-2.9 1.953-3.083 2.123-.184.171-.549.477-.812.681s-.85.709-1.305 1.124c-.935.85-1.046.847-1.193-.037-.124-.75-.381-2.041-.589-2.962-.083-.367-.241-1.08-.351-1.584s-.268-1.216-.351-1.583c-2.797-12.407.788-19.322 11.101-21.408.55-.111 1.3-.266 1.666-.344.367-.078 1.154-.229 1.75-.334 1.444-.255 2.64-.498 3.25-.661.726-.194.81-.138 1.021.677m86.174 1.931c-.225.225-.128 25.334.098 25.522.662.55 11.644.931 15.188.527 4.414-.502 5.078-.628 7.572-1.44 6.99-2.273 10.308-7.22 9.317-13.887-.491-3.297-1.286-5.007-3.146-6.769-.669-.634-2.667-2.064-2.883-2.064-.052 0-.412-.14-.801-.312-.626-.276-1.074-.42-2.399-.772-2.736-.726-22.337-1.414-22.946-.805" fill="transparent"/><path d="m45.607 9.958c-.046.161-.131.704-.19 1.209-.097.828-.365 2.246-.771 4.083-.082.367-.229 1.042-.328 1.5-1.09 5.062-.042 7.712 4.284 10.824 1.72 1.237 1.853 1.272 2.315.611 2.223-3.183 2.971-4.421 3.543-5.86 1.219-3.065-.042-6.26-3.598-9.117-.428-.343-.817-.676-.865-.739-.047-.062-.497-.362-1-.666-.502-.305-1.411-.91-2.018-1.345-1.249-.895-1.26-.899-1.372-.5m31.294 8.159c-1.038 1.273-2.802 2.975-5.401 5.213-5.471 4.708-7.816 7.42-9.011 10.42-.492 1.235-.572 1.823-.571 4.167.001 2.308.094 3.047.579 4.583.072.229.223.754.336 1.167.247.901.484 1.631.675 2.083.078.183.251.671.385 1.083.432 1.335.806 2.167.975 2.167.091 0 1.04-.289 2.107-.642 1.068-.353 2.279-.742 2.692-.864.412-.121.825-.267.916-.323.092-.056.467-.197.834-.314.68-.217.833-.276 2-.775 3.931-1.68 6.454-3.837 7.697-6.582.975-2.151 1.36-5.197.991-7.833-.31-2.222-.396-2.619-1.1-5.084-.149-.521-1.09-3.148-2.001-5.583-.292-.779-.677-1.865-.856-2.414-.444-1.359-.503-1.381-1.247-.469m30.251 2.72c-.512.261-2.2.898-3.75 1.415-7.96 2.655-10.093 5.291-9.709 11.998l.057 1 1.333.112c7.471.627 9.66-.097 11.542-3.819.639-1.264.722-1.503 1.055-3.043.214-.987.655-7.885.513-8.027-.06-.061-.529.103-1.041.364m-84.485 2.595c0 .131.141.556.314.945.426.959.847 2.141 1.677 4.706 1.584 4.903 2.942 6.657 5.851 7.557 1.277.396 3.939.753 4.991.669l.75-.059.121-1.083c.81-7.279-.328-10.13-4.704-11.788-2.192-.83-9-1.546-9-.947m32.288 9.002c-.067.067-.122.237-.122.377 0 .188.05.206.186.07.102-.102.156-.271.121-.377-.035-.105-.118-.137-.185-.07m-1.043 1.843c-1.299 2.937-1.912 4.515-1.912 4.923 0 .177-.068.449-.152.605-.083.156-.274.845-.425 1.531-.986 4.496-1.009 7.37-.102 12.247.455 2.444 2.596 7.625 4.043 9.783.35.522.636.988.636 1.036 0 .444 3.858 5.475 5.776 7.532 2.745 2.944 5.023 5.713 6.005 7.299 1.443 2.33 1.665 2.729 2.652 4.767.51 1.054.997 2.047 1.081 2.206s.153.393.153.52c0 .126.142.596.317 1.043.32.823.914 2.797 1.072 3.564.048.23.196.942.329 1.584.612 2.942.698 4.03.698 8.833-.001 3.09-.072 5.164-.198 5.75-.109.504-.285 1.554-.391 2.333-.107.779-.259 1.68-.338 2-.079.321-.267 1.071-.416 1.667-.15.596-.33 1.383-.4 1.75s-.24 1.004-.376 1.417c-.137.412-.349 1.087-.47 1.5-.121.412-.269.825-.327.916-.059.092-.209.504-.333.917-.124.412-.287.821-.363.908s-.138.257-.138.377-.157.574-.35 1.008c-.192.435-.433.978-.534 1.207-.315.712-.639.99-1.264 1.085-1.823.278-5.156.983-6.852 1.45-2.489.686-3.599 1.016-4.416 1.313-.459.166-1.359.469-2 .671-.642.203-1.917.657-2.834 1.009-.916.352-1.753.64-1.858.639-.106 0-.818.287-1.583.639-.766.352-1.842.81-2.392 1.019s-1.226.479-1.503.6c-.276.121-.707.298-.958.393-.272.104-.456.299-.456.486 0 .498 1.86.529 30.902.528 27.967-.001 29.098-.02 29.098-.495 0-.928-6.157-4.086-10.704-5.491-.85-.263-1.846-.59-2.212-.727-1.392-.519-4.875-1.587-5.857-1.796-1.599-.339-1.637-.392-1.414-1.982.729-5.207.851-6.953.852-12.174.002-6.592-.363-10.009-1.702-15.917-.819-3.613-1.705-6.158-3.307-9.5-2.801-5.843-6.344-10.052-11.156-13.252-6.901-4.591-12.691-13.827-14.104-22.498-.422-2.589-.427-8.631-.009-10.5.154-.687.28-1.429.28-1.649 0-.219.142-.894.316-1.5.722-2.513.461-3.53-.404-1.574m142.171.228c-.275.076-1.062.227-1.75.335-.687.109-1.587.285-2 .393l-.75.195v31.494 31.495l.383 1.53c1.019 4.073 3.488 6.628 7.284 7.539.458.11 1.096.265 1.417.344.32.079 1.178.169 1.904.199l1.322.054.2-1c.828-4.131.849-3.969-.551-4.236-2.689-.512-3.977-1.14-4.741-2.307-1.196-1.829-1.134.077-1.134-34.832v-31.375l-.542.017c-.298.01-.767.079-1.042.155m-50.833 7.094c-1.753.08-5.348.397-6.667.587-2.758.397-4.834.781-5.375.993l-.375.147v31.327c0 17.23.063 31.366.14 31.413.269.167 3.886.83 5.944 1.089.733.093 2.008.264 2.833.38 1.928.272 12.456.261 14.437-.015 6.442-.898 9.419-1.696 12.926-3.467 2.897-1.463 5.609-3.87 6.867-6.095.194-.343.501-.885.681-1.202 1.903-3.36 2.226-10.818.632-14.589-1.18-2.793-1.872-3.803-3.892-5.683-.676-.63-2.918-2.151-3.17-2.151-.037 0-.423-.157-.858-.35-1.213-.537-1.406-.613-2.123-.829-1.445-.435-2.103-.821-1.4-.821.5 0 3.078-1.463 4.169-2.366 6.5-5.383 6.933-16.345.875-22.146-1.63-1.561-5.21-3.821-6.052-3.821-.099 0-.31-.071-.469-.159-1.034-.567-4.255-1.361-6.79-1.673-.825-.102-2.025-.253-2.666-.336-1.26-.164-7.764-.32-9.667-.233m8.597 5.558c.497.087 1.578.245 2.403.352 6.17.8 10.386 3.576 11.78 7.759.86 2.581.461 6.709-.894 9.261-.686 1.292-3.243 3.804-3.872 3.804-.05 0-.546.22-1.102.489-1.192.578-3.977 1.304-5.887 1.535-2.232.27-16.559.391-16.859.142-.345-.285-.381-22.516-.037-22.801.116-.097 1.185-.263 2.375-.37 1.189-.107 2.194-.224 2.232-.261.146-.141 9.003-.059 9.861.09m-128.18 1.039c-.321.088-.884.239-1.25.335-2.285.597-4.236 1.639-6.917 3.697-1.948 1.495-2.5 1.976-2.5 2.179 0 .11-.169.345-.375.522-3.987 3.426-5.128 4.466-5.013 4.572.076.07.625.296 1.221.503 1.748.607 3.397 1.383 6.834 3.216 2.906 1.551 4.421 2.282 6.083 2.937.183.073.521.21.75.305 5.903 2.458 10.677 1.296 16.606-4.042.104-.093.718-.62 1.365-1.17 1.281-1.091 1.339-1.198.899-1.677-.841-.915-3.825-4.668-4.077-5.127-.876-1.596-5.077-5.074-6.876-5.692-2.2-.756-5.155-1-6.75-.558m70.083 5.304c-.275.07-2.038.141-3.917.158-4.458.04-7.638.334-7.857.725-.093.166-.36.284-.643.284-.266 0-.694.083-.95.186-3.847 1.537-5.528 3.611-7.635 9.418-.508 1.401-.511 1.51-.04 1.657.207.065.825.319 1.375.566s1.45.619 2 .827 1.15.437 1.334.509c.183.072.896.298 1.583.504.688.205 1.467.439 1.733.52.625.189 3.636.19 4.134.001.211-.08.683-.24 1.05-.355 3-.94 6.241-5.05 7.755-9.833.072-.229.371-1.055.663-1.834.444-1.181 1.159-3.307 1.164-3.458.002-.088-1.272.004-1.749.125m136.917 4.098c-1.554.133-4.412.803-5.834 1.368-10.923 4.34-16.331 17.202-13.294 31.617 3.544 16.824 23.084 23.576 35.722 12.343 2.671-2.374 5.553-7.021 6.414-10.343.071-.275.24-.912.374-1.416.254-.95.485-2.222.78-4.282.446-3.125.156-8.011-.695-11.718-1.956-8.517-8.462-15.481-15.884-17.003-.55-.112-1.263-.27-1.583-.351-.654-.163-4.843-.313-6-.215m54.333.066c-2.988.388-4.926.95-7.083 2.052-5.064 2.587-8.559 6.661-10.753 12.534-.415 1.113-.932 3.111-1.315 5.083-.569 2.938-.58 8.68-.021 11.25.08.367.237 1.117.349 1.667.215 1.049.739 2.903 1.002 3.542.085.206.22.543.301.75.644 1.653 2.411 4.774 3.288 5.811 4.663 5.508 9.861 7.974 16.815 7.974 10.908 0 19.037-7.022 21.505-18.577.785-3.675.785-9.825 0-13.5-1.832-8.575-6.712-14.72-13.838-17.423-.78-.296-1.393-.47-2.333-.663-.55-.112-1.263-.27-1.584-.351-.852-.213-5.073-.313-6.333-.149m50.833.194c-2.144.157-4.227.413-5.291.651-.39.087-1.065.238-1.5.336-.436.098-1.13.253-1.542.344-1.371.303-2.851.678-3.875.984l-.625.186v23.491 23.491l3.042-.046 3.041-.045.084-21.331.083-21.331.469-.225c.451-.216 1.299-.386 3.614-.722 2.173-.316 9.132-.363 10.542-.072 5.39 1.114 7.554 3.858 8.49 10.764.098.72.215 7.966.277 17.084l.108 15.833h3 3l.046-13.583c.056-16.838-.115-20.493-1.127-24.084-.605-2.145-.663-1.951.876-2.942 7.265-4.682 17.82-4.503 21.121.358 1.302 1.917 1.853 3.544 2.371 7.001.123.821.221 6.746.284 17.25l.096 16 3.056.045 3.056.046-.07-16.296c-.049-11.594-.128-16.68-.271-17.628-.445-2.934-.545-3.53-.717-4.25-1.803-7.563-7.311-11.5-16.089-11.5-5.919 0-11.978 1.86-15.936 4.892l-.636.488-.948-.99c-3.529-3.685-8.683-4.886-18.029-4.199m-101.465 5.325c4.907.524 8.035 2.412 10.745 6.484.987 1.482 1.573 2.711 2.188 4.583 1.968 5.998 1.579 14.516-.907 19.851-2.658 5.706-7.215 8.624-13.477 8.63-8.486.009-13.542-4.9-15.433-14.981-.286-1.522-.291-7.932-.008-9.417.478-2.512.581-2.965.892-3.916 2.15-6.589 6.339-10.365 12.382-11.16.917-.121 1.72-.228 1.785-.238.065-.011.89.063 1.833.164m54.77-.01c.887.095 1.912.255 2.279.356 1.26.346 1.833.539 1.991.672.087.073.252.132.366.132.847 0 3.758 2.318 5.234 4.167 5.496 6.884 5.742 21.197.486 28.333-5.397 7.33-16.174 8.142-22.442 1.692-7.285-7.495-6.794-25.286.882-31.971 2.546-2.218 4.857-3.089 9.371-3.532.122-.012.947.056 1.833.151m-190.516 7.067c-1.98.443-6.789 3.608-6.789 4.468 0 .67 4.086 5.335 5.5 6.281 3.21 2.146 8.338.939 12-2.825.046-.047.496-.422 1-.833 1.9-1.551 2.305-1.998 1.811-1.998-.352 0-3.504-1.611-5.894-3.012-3.026-1.774-5.718-2.509-7.628-2.081m-48.539 3.263c-.61.163-1.806.406-3.25.661-.596.105-1.383.256-1.75.334-.366.078-1.116.233-1.666.344-10.313 2.086-13.898 9.001-11.101 21.408.083.367.241 1.079.351 1.583s.268 1.217.351 1.584c.208.921.465 2.212.589 2.962.147.884.258.887 1.193.037.455-.415 1.042-.92 1.305-1.124s.628-.51.812-.681c.183-.17 1.57-1.126 3.083-2.123 10.356-6.83 12.355-9.368 12.353-15.69 0-2.404-.079-3.038-.857-6.881-.521-2.581-.558-2.643-1.413-2.414m105.25 2.745c2.451.232 4.094.457 4.891.668 1.325.352 1.773.496 2.399.772.389.172.749.312.801.312.216 0 2.214 1.43 2.883 2.064 1.86 1.762 2.655 3.472 3.146 6.769.991 6.667-2.327 11.614-9.317 13.887-2.494.812-3.158.938-7.572 1.44-3.544.404-14.526.023-15.188-.527-.226-.188-.323-25.297-.098-25.522.231-.231 15.382-.116 18.055.137" fill="#96bf3f"/></g></svg>